# xmcd CD database file
# Copyright (C) 1997 Ti Kan
# 
# Track frame offsets:
#     150
#     23020
#     42522
#     63382
#     85880
#     107157
#     129907
#     149842
#     174117
#     198955
#     217970
#     240045
#     261402
#     282637
#     299712
#     324997
# 
# Disc length: 4554 seconds
# 
# Revision: 1
# Processed by: cddbd v1.4b41PL1 Copyright (c) Steve Scherf et al.
# Submitted via: DiscPlay 4.0.3
# 
DISCID=ef11c810
DTITLE=Lisa Stansfield - Lisa Stansfield
DYEAR=1900
DGENRE=
TTITLE0=Never Gonna Fall
TTITLE1=The Real Thing
TTITLE2=I'm Leavin'
TTITLE3=Suzanne
TTITLE4=Never, Never Gonna Give You Up
TTITLE5=Don't Cry for Me
TTITLE6=The Line
TTITLE7=The Very Thought of You
TTITLE8=You Know How to Love Me
TTITLE9=I Cried My Last Tear, Last Night
TTITLE10=Honest
TTITLE11=Somewhere in Time
TTITLE12=Got Me Missing You
TTITLE13=Footsteps
TTITLE14=The Real Thing (Touch Me)
TTITLE15=People Hold On (Bootleg Mix)
EXTD=
EXTT0=
EXTT1=
EXTT2=
EXTT3=
EXTT4=
EXTT5=
EXTT6=
EXTT7=
EXTT8=
EXTT9=
EXTT10=
EXTT11=
EXTT12=
EXTT13=
EXTT14=
EXTT15=
PLAYORDER=
